<svg xmlns="http://www.w3.org/2000/svg" viewBox="0 0 255.3 142"><defs><style>.cls-1,.cls-5,.cls-8{fill:none;}.cls-2{opacity:0.5;}.cls-3{fill:#cacbcc;}.cls-4{fill:#d2d3d3;}.cls-5{stroke:#221f1f;stroke-miterlimit:10;stroke-width:0.75px;opacity:0.15;}.cls-6{opacity:0.9;}.cls-7{fill:#3d4647;}.cls-8{stroke:#6dbd4b;stroke-linecap:round;stroke-linejoin:round;stroke-width:2px;}.cls-9{opacity:0.15;}.cls-10{fill:#221f1f;}</style></defs><title>MFG-ReduceCost2</title><g id="Layer_1" data-name="Layer 1"><g id="Layer_1-2-2-2" data-name="Layer 1-2-2-2"><rect class="cls-1" width="255.3" height="142"/></g></g><g id="Layer_2" data-name="Layer 2"><g class="cls-2"><rect class="cls-3" x="66.74" y="127.21" width="111.31" height="2.2" rx="1.03"/></g><g class="cls-2"><rect class="cls-3" x="182.4" y="127.21" width="17.77" height="2.2" rx="1.03"/></g><g class="cls-2"><rect class="cls-3" x="55.77" y="133.02" width="30.33" height="2.2" rx="1.03"/></g><g class="cls-2"><rect class="cls-3" x="47.98" y="127.21" width="15.04" height="2.2" rx="1.03"/></g><path class="cls-4" d="M116.31,9.85h.06c1.18-.15,2.38-.26,3.56-.35a.54.54,0,0,0,.49-.54.54.54,0,0,0-.55-.48c-1.21.07-2.42.19-3.64.34a.54.54,0,0,0-.35.68.57.57,0,0,0,.42.36Z" transform="translate(0 -0.2)"/><path class="cls-4" d="M109.23,11.19h.13c1.16-.3,2.32-.54,3.49-.78a.54.54,0,0,0,.31-.7.58.58,0,0,0-.5-.35h0c-1.2.25-2.4.55-3.56.8a.55.55,0,0,0-.26,1.06.59.59,0,0,0,.39-.05Z" transform="translate(0 -0.2)"/><path class="cls-4" d="M123.51,9.38h.1c1.16,0,2.33,0,3.48.1h0a.53.53,0,0,0,.4-.63h0a.51.51,0,0,0-.36-.39h0c-1.17-.07-2.37-.1-3.55-.1h-.1a.52.52,0,0,0-.39.63V9a.52.52,0,0,0,.38.38Z" transform="translate(0 -0.2)"/><path class="cls-4" d="M102.35,13.42a.31.31,0,0,0,.19,0c1.08-.43,2.23-.84,3.36-1.21a.54.54,0,0,0,.17-.74.53.53,0,0,0-.49-.25h0c-1.15.37-2.31.79-3.43,1.24a.52.52,0,0,0-.23.72h0a.52.52,0,0,0,.43.28Z" transform="translate(0 -0.2)"/><path class="cls-4" d="M84.21,25a.52.52,0,0,0,.35-.14c.86-.82,1.75-1.62,2.66-2.39a.54.54,0,0,0,.2-.74.52.52,0,0,0-.57-.26.46.46,0,0,0-.24.17h-.06c-.92.77-1.83,1.59-2.7,2.42a.55.55,0,0,0,0,.74A.57.57,0,0,0,84.21,25Z" transform="translate(0 -0.2)"/><path class="cls-4" d="M95.83,16.5a.4.4,0,0,0,.24-.07c1-.57,2.09-1.12,3.18-1.62a.53.53,0,0,0,.11-.75.54.54,0,0,0-.55-.2h0c-1.08.55-2.15,1.08-3.24,1.66a.53.53,0,0,0-.13.75A.52.52,0,0,0,95.83,16.5Z" transform="translate(0 -0.2)"/><path class="cls-4" d="M130.62,9.81c1.18.15,2.37.33,3.54.54h.1a.52.52,0,0,0,.09-1c-1.19-.22-2.4-.41-3.6-.54a.55.55,0,0,0-.65.41.56.56,0,0,0,.27.6A.54.54,0,0,0,130.62,9.81Z" transform="translate(0 -0.2)"/><path class="cls-4" d="M89.76,20.39a.54.54,0,0,0,.3-.1c1-.71,2-1.38,3-2a.53.53,0,0,0,.34-.67.54.54,0,0,0-.68-.34.62.62,0,0,0-.19.12h0c-1,.65-2,1.35-3,2a.56.56,0,0,0,0,.76h0a.54.54,0,0,0,.36.18Z" transform="translate(0 -0.2)"/><path class="cls-4" d="M79.34,30.34a.54.54,0,0,0,.4-.2c.75-.92,1.54-1.84,2.34-2.7a.55.55,0,0,0-.24-.73.55.55,0,0,0-.53,0c-.82.9-1.62,1.82-2.38,2.76a.57.57,0,0,0,.07.75h0A.54.54,0,0,0,79.34,30.34Z" transform="translate(0 -0.2)"/><path class="cls-4" d="M165,27.32a.54.54,0,0,0,.74-.15h0a.52.52,0,0,0,0-.56c-.82-.89-1.68-1.76-2.55-2.61a.53.53,0,0,0-.78.71h0v.05A31.38,31.38,0,0,1,165,27.32Z" transform="translate(0 -0.2)"/><path class="cls-4" d="M168.19,29.37a.54.54,0,0,0-.71-.28.53.53,0,0,0-.29.7h0a.57.57,0,0,0,.19.24h0c.31.38.6.76.9,1.15h1.31Z" transform="translate(0 -0.2)"/><path class="cls-4" d="M159.83,22.41a.5.5,0,0,0,.33.12.51.51,0,0,0,.42-.19.54.54,0,0,0-.07-.73h0c-.93-.77-1.9-1.52-2.88-2.24a.55.55,0,0,0-.72.26h0a.54.54,0,0,0,0,.55H157A34.47,34.47,0,0,1,159.83,22.41Z" transform="translate(0 -0.2)"/><path class="cls-4" d="M144.49,13.31c1.09.43,2.22.91,3.29,1.42a.69.69,0,0,0,.24,0,.54.54,0,0,0,.49-.59.56.56,0,0,0-.26-.42c-1.09-.53-2.23-1-3.36-1.44a.54.54,0,0,0-.74.11v0a.53.53,0,0,0,.12.75.77.77,0,0,0,.25.1Z" transform="translate(0 -0.2)"/><path class="cls-4" d="M151,16.35c1,.58,2.08,1.19,3.09,1.82a.52.52,0,0,0,.69-.26.51.51,0,0,0-.14-.61c-1-.66-2.08-1.28-3.12-1.86a.55.55,0,0,0-.71.2h0A.54.54,0,0,0,151,16.35Z" transform="translate(0 -0.2)"/><path class="cls-4" d="M137.67,11.13c1.16.29,2.31.62,3.45,1h.16a.54.54,0,0,0,.49-.36.53.53,0,0,0-.34-.65c-1.15-.38-2.32-.72-3.5-1a.53.53,0,0,0-.63.37.54.54,0,0,0,.34.66Z" transform="translate(0 -0.2)"/><circle class="cls-5" cx="98.97" cy="43.31" r="1.56"/><circle class="cls-5" cx="142.03" cy="17.79" r="1.12"/><circle class="cls-5" cx="168.37" cy="114.28" r="1.56"/><g class="cls-6"><path class="cls-7" d="M122.87,81V78.28a7.87,7.87,0,0,1-4.13-1.18l.65-1.81a7.15,7.15,0,0,0,3.88,1.16c1.92,0,3.21-1.11,3.21-2.64s-1-2.4-3-3.21c-2.76-1.08-4.45-2.32-4.45-4.67s1.59-3.93,4.07-4.34V58.87h1.67v2.62a7.18,7.18,0,0,1,3.51.94l-.68,1.78a6.52,6.52,0,0,0-3.4-.92c-2.07,0-2.85,1.24-2.85,2.32,0,1.4,1,2.1,3.34,3.07,2.78,1.14,4.18,2.54,4.18,4.94a4.69,4.69,0,0,1-4.26,4.58V81Z" transform="translate(0 -0.2)"/></g><polyline class="cls-8" points="111.41 27.21 131.35 41.57 141.09 36.41 157.42 56.28"/><polyline class="cls-8" points="150.33 53.95 157.42 56.28 158.24 49.3"/><g class="cls-6"><path class="cls-7" d="M116,110.69v-6.53h6.53v6.53Zm-8.72,0V97.63h6.54v13.06Zm-8.71,0V91.1h6.54v19.59Zm-2.17,0H89.82V84.57h6.54Z" transform="translate(0 -0.2)"/></g><path class="cls-3" d="M142,69.08c0,.14,0,.28,0,.43s0,.28,0,.43,0,.29,0,.43,0,.29,0,.43l6.2,3.85-3.8,9.16-7.11-1.62c-.39.41-.78.81-1.2,1.19l1.63,7.11-9.17,3.8-3.85-6.19h-1.72l-3.86,6.19-9.16-3.8,1.62-7.11c-.41-.38-.81-.78-1.19-1.19l-7.11,1.62-3.81-9.16,6.2-3.85c0-.14,0-.29,0-.43s0-.29,0-.43,0-.29,0-.43,0-.29,0-.43l-6.2-3.85,3.81-9.17,7.11,1.63c.38-.42.78-.81,1.19-1.2l-1.62-7.1,9.16-3.81,3.86,6.2h1.72l3.85-6.2,9.17,3.81L136,56.49c.42.39.81.78,1.2,1.2l7.11-1.63,3.8,9.17Zm-2.8,3.11c0-.39.07-.76.1-1.14s.05-.75.05-1.14,0-.74-.05-1.12-.07-.76-.1-1.12l5.65-3.52-2.06-5-6.48,1.51c-.5-.61-1-1.16-1.52-1.68s-1.08-1-1.69-1.53L134.56,51l-5-2.06L126,54.58l-1.13-.1c-.38,0-.76,0-1.12,0s-.76,0-1.14,0l-1.14.1L118,48.93,113,51l1.5,6.48A22.56,22.56,0,0,0,112.85,59c-.51.52-1,1.08-1.53,1.69l-6.49-1.51-2.06,5,5.65,3.54-.09,1.14a10.56,10.56,0,0,0,0,1.13,10.92,10.92,0,0,0,0,1.13l.09,1.12-5.65,3.52,2.06,5,6.49-1.5a20.55,20.55,0,0,0,1.52,1.67q.78.76,1.68,1.53L113,88.89l5,2,3.54-5.64,1.12.09a10.92,10.92,0,0,0,1.13,0,10.56,10.56,0,0,0,1.13,0l1.14-.09,3.52,5.64,5-2-1.51-6.49a19,19,0,0,0,1.67-1.52c.51-.51,1-1.08,1.54-1.68l6.48,1.5,2.06-5Z" transform="translate(0 -0.2)"/><path class="cls-3" d="M74.08,80.3a1.21,1.21,0,0,1-.2.26,1.79,1.79,0,0,1-.26.2l.2.48-.46.18L73.17,81a1.38,1.38,0,0,1-.66,0l-.2.47-.45-.18.2-.48a1.79,1.79,0,0,1-.26-.2,1.71,1.71,0,0,1-.21-.26l-.47.19L70.94,80l.47-.19a1.24,1.24,0,0,1,0-.33,1.15,1.15,0,0,1,0-.33l-.47-.2.18-.45.47.2a1.41,1.41,0,0,1,.47-.47l-.2-.47.45-.19.2.47a1.83,1.83,0,0,1,.66,0l.19-.47.46.19-.2.47a1.3,1.3,0,0,1,.46.47l.48-.2.18.45-.47.2a1.15,1.15,0,0,1,0,.33,1.24,1.24,0,0,1,0,.33l.47.19-.18.45Zm-1.24.2a1,1,0,0,0,.38-.08,1,1,0,0,0,.52-.52,1,1,0,0,0,.08-.38.92.92,0,0,0-.08-.38,1,1,0,0,0-.21-.32,1,1,0,0,0-1.38,0,1,1,0,0,0-.21.32.79.79,0,0,0-.08.38.84.84,0,0,0,.08.38,1,1,0,0,0,.52.52A1,1,0,0,0,72.84,80.5Zm5.39,1.71a2.18,2.18,0,0,1,0,.43l.52.21-.18.46L78,83.09a1.72,1.72,0,0,1-.6.6l.22.52-.45.19-.22-.53a1.52,1.52,0,0,1-.42.06,1.59,1.59,0,0,1-.43-.06l-.21.53-.46-.19.22-.52a1.72,1.72,0,0,1-.6-.6l-.53.22-.18-.46.52-.21a2.18,2.18,0,0,1,0-.43,2,2,0,0,1,0-.42l-.52-.22.18-.45.53.22a1.72,1.72,0,0,1,.6-.6l-.22-.53.46-.18.21.52a1.58,1.58,0,0,1,.43,0,1.51,1.51,0,0,1,.42,0l.22-.52.45.18-.22.53a1.72,1.72,0,0,1,.6.6l.53-.22.18.45-.52.22A2,2,0,0,1,78.23,82.21Zm-1.71,1.23a1.07,1.07,0,0,0,.47-.1,1.2,1.2,0,0,0,.65-.65,1.12,1.12,0,0,0,.1-.48,1.07,1.07,0,0,0-.1-.47,1.16,1.16,0,0,0-.26-.39,1.36,1.36,0,0,0-.39-.27,1.23,1.23,0,0,0-.47-.09,1.28,1.28,0,0,0-.48.09,1.36,1.36,0,0,0-.39.27,1.16,1.16,0,0,0-.26.39,1.07,1.07,0,0,0-.1.47,1.12,1.12,0,0,0,.1.48,1.2,1.2,0,0,0,.65.65A1.12,1.12,0,0,0,76.52,83.44Z" transform="translate(0 -0.2)"/><path class="cls-3" d="M173.2,49.89h5.68v.44h-6.12V44.21h.44ZM178.88,47v2.5h-5.24V46.36l1.09-.54,1.49.74,1.13-1.13Zm-4.15-.64-.65.32v1.51h1.47l1.85-.92,1,1V47.14l-1.1-1.1-1,1.05Zm-.65,2.7h4.37v-.12l-1.14-1.14-1.65.83h-1.58Z" transform="translate(0 -0.2)"/><g class="cls-9"><path class="cls-10" d="M153.15,99.71h-.87v-.87a.17.17,0,0,0-.18-.17h-.35a.17.17,0,0,0-.17.17v.87h-.87a.18.18,0,0,0-.18.18v.35a.18.18,0,0,0,.18.17h.87v.87a.17.17,0,0,0,.17.17h.35a.17.17,0,0,0,.18-.17v-.87h.87a.17.17,0,0,0,.17-.17v-.35A.17.17,0,0,0,153.15,99.71Z" transform="translate(0 -0.2)"/></g><g class="cls-9"><path class="cls-10" d="M76.51,46.81h-.87v-.88a.18.18,0,0,0-.17-.17h-.35a.18.18,0,0,0-.18.17v.88h-.87a.16.16,0,0,0-.17.17v.35a.17.17,0,0,0,.17.17h.87v.87a.18.18,0,0,0,.18.18h.35a.18.18,0,0,0,.17-.18V47.5h.87a.18.18,0,0,0,.18-.17V47A.17.17,0,0,0,76.51,46.81Z" transform="translate(0 -0.2)"/></g></g></svg>