<svg id="Layer_3" data-name="Layer 3" xmlns="http://www.w3.org/2000/svg" viewBox="0 0 254.7 141.18"><defs><style>.cls-1{opacity:0.5;}.cls-2{fill:#cacbcc;}.cls-3{fill:#d2d3d3;}.cls-4{fill:#3d4647;}.cls-5{fill:#6dbd4b;}.cls-6,.cls-9{fill:none;}.cls-6{stroke:#221f1f;stroke-miterlimit:10;stroke-width:0.75px;opacity:0.15;}.cls-7{opacity:0.15;}.cls-8{fill:#221f1f;}</style></defs><title>QualityProduct</title><g class="cls-1"><rect class="cls-2" x="73.35" y="128.54" width="111.85" height="2.2" rx="1.03"/></g><g class="cls-1"><rect class="cls-2" x="189.57" y="128.54" width="17.85" height="2.2" rx="1.03"/></g><g class="cls-1"><rect class="cls-2" x="62.33" y="134.36" width="30.47" height="2.2" rx="1.03"/></g><g class="cls-1"><rect class="cls-2" x="54.49" y="128.54" width="15.11" height="2.2" rx="1.03"/></g><path class="cls-3" d="M116.47,9.62h.06c1.19-.15,2.39-.26,3.59-.34a.52.52,0,0,0,.48-.54.55.55,0,0,0-.55-.49c-1.21.07-2.43.19-3.66.35a.53.53,0,0,0-.34.68.51.51,0,0,0,.41.35Z" transform="translate(6.68 1.18)"/><path class="cls-3" d="M109.36,11h.13c1.16-.3,2.34-.54,3.51-.78a.55.55,0,0,0-.19-1h0c-1.21.24-2.41.54-3.58.8A.55.55,0,0,0,109,11a.59.59,0,0,0,.39-.05Z" transform="translate(6.68 1.18)"/><path class="cls-3" d="M123.71,9.16h.1c1.16,0,2.34,0,3.49.1h0a.54.54,0,0,0,.41-.64h0a.54.54,0,0,0-.37-.4h0c-1.17-.07-2.38-.1-3.56-.1h-.1a.52.52,0,0,0-.39.63v0a.55.55,0,0,0,.39.38Z" transform="translate(6.68 1.18)"/><path class="cls-3" d="M102.44,13.2a.34.34,0,0,0,.2,0c1.08-.43,2.24-.84,3.38-1.21a.54.54,0,0,0,.17-.74.56.56,0,0,0-.5-.25h0c-1.15.37-2.31.79-3.45,1.24A.53.53,0,0,0,102,13h0a.49.49,0,0,0,.42.28Z" transform="translate(6.68 1.18)"/><path class="cls-3" d="M84.22,24.82a.52.52,0,0,0,.35-.14c.86-.82,1.76-1.62,2.67-2.39a.54.54,0,0,0,.21-.74.55.55,0,0,0-.58-.27.66.66,0,0,0-.23.17h-.07c-.93.78-1.84,1.6-2.71,2.43a.55.55,0,0,0,0,.74A.57.57,0,0,0,84.22,24.82Z" transform="translate(6.68 1.18)"/><path class="cls-3" d="M95.9,16.29a.42.42,0,0,0,.24-.07c1-.58,2.09-1.12,3.2-1.62a.54.54,0,0,0-.45-.95h0c-1.08.54-2.16,1.08-3.26,1.65a.55.55,0,0,0-.13.76A.57.57,0,0,0,95.9,16.29Z" transform="translate(6.68 1.18)"/><path class="cls-3" d="M130.85,9.58c1.19.16,2.38.34,3.56.55h.1a.53.53,0,0,0,.56-.48.52.52,0,0,0-.47-.56c-1.2-.22-2.41-.41-3.62-.54a.54.54,0,0,0-.65.4.55.55,0,0,0,.27.6A.54.54,0,0,0,130.85,9.58Z" transform="translate(6.68 1.18)"/><path class="cls-3" d="M89.79,20.18a.57.57,0,0,0,.31-.1c1-.7,2-1.38,3-2a.53.53,0,0,0,.35-.66.55.55,0,0,0-.69-.34.62.62,0,0,0-.19.12h0c-1,.65-2,1.35-3,2a.54.54,0,0,0,0,.76h0a.54.54,0,0,0,.35.18Z" transform="translate(6.68 1.18)"/><path class="cls-3" d="M79.33,30.15a.53.53,0,0,0,.4-.21c.75-.91,1.54-1.83,2.35-2.7a.54.54,0,0,0-.24-.72.52.52,0,0,0-.54,0c-.82.89-1.62,1.81-2.39,2.76A.55.55,0,0,0,79,30h0A.56.56,0,0,0,79.33,30.15Z" transform="translate(6.68 1.18)"/><path class="cls-3" d="M165.44,27.12a.53.53,0,0,0,.74-.14h0a.56.56,0,0,0,0-.56q-1.24-1.34-2.58-2.61a.52.52,0,1,0-.77.71h0v0A31.54,31.54,0,0,1,165.44,27.12Z" transform="translate(6.68 1.18)"/><path class="cls-3" d="M168.6,29.18a.53.53,0,0,0-.71-.28.52.52,0,0,0-.29.7h0a.58.58,0,0,0,.18.23h0c.32.39.61.77.92,1.16H170C169.54,30.38,169.08,29.77,168.6,29.18Z" transform="translate(6.68 1.18)"/><path class="cls-3" d="M160.2,22.21a.54.54,0,0,0,.34.12.53.53,0,0,0,.41-.19.54.54,0,0,0-.07-.74h0c-.93-.76-1.9-1.52-2.89-2.24a.55.55,0,0,0-.72.26h0a.52.52,0,0,0,0,.54h.06A34.73,34.73,0,0,1,160.2,22.21Z" transform="translate(6.68 1.18)"/><path class="cls-3" d="M144.79,13.09c1.09.44,2.23.91,3.31,1.43a.86.86,0,0,0,.23.05.56.56,0,0,0,.5-.6.56.56,0,0,0-.27-.41c-1.09-.54-2.23-1-3.37-1.44a.54.54,0,0,0-.75.1v0a.53.53,0,0,0,.12.75.55.55,0,0,0,.25.1Z" transform="translate(6.68 1.18)"/><path class="cls-3" d="M151.31,16.14c1,.57,2.09,1.19,3.1,1.82a.53.53,0,0,0,.7-.26.51.51,0,0,0-.14-.61c-1-.66-2.09-1.28-3.14-1.87a.55.55,0,0,0-.71.2h0A.55.55,0,0,0,151.31,16.14Z" transform="translate(6.68 1.18)"/><path class="cls-3" d="M137.94,10.9c1.16.3,2.32.63,3.46,1h.16a.52.52,0,0,0,.15-1c-1.15-.37-2.32-.71-3.51-1a.54.54,0,0,0-.64.37.55.55,0,0,0,.35.66Z" transform="translate(6.68 1.18)"/><path class="cls-4" d="M165.48,71a1.41,1.41,0,0,1,.54.11,1.37,1.37,0,0,1,.45.3,1.23,1.23,0,0,1,.3.44,1.24,1.24,0,0,1,.11.54,1.33,1.33,0,0,1-.07.45l-1.87,5.57a1.11,1.11,0,0,1-.2.39,1.52,1.52,0,0,1-.69.5,1.55,1.55,0,0,1-.43.07h-3.74a6.4,6.4,0,0,1-2.51-.51,6,6,0,0,0-1.05-.31,5,5,0,0,0-1.1-.11H152V71.92h3a2.26,2.26,0,0,0,.9-.18,2.19,2.19,0,0,0,.75-.5l4.54-4.51a1.53,1.53,0,0,1,.36-.29.87.87,0,0,1,.44-.1,1.18,1.18,0,0,1,.46.09,1.17,1.17,0,0,1,.62.62,1.13,1.13,0,0,1,.09.45,4.52,4.52,0,0,1-.13,1.12,5.43,5.43,0,0,1-.39,1.06,4.93,4.93,0,0,0-.24.64,3,3,0,0,0-.14.67Zm-1.86,7.44a.47.47,0,0,0,.44-.32c0-.07.07-.2.14-.4l.23-.7c.1-.27.2-.57.31-.9l.34-1c.11-.33.21-.66.32-1l.28-.85c.08-.26.15-.46.2-.63a1.43,1.43,0,0,0,.07-.28.45.45,0,0,0-.14-.32.42.42,0,0,0-.33-.14h-4.2c0-.26,0-.5,0-.72a4.48,4.48,0,0,1,.08-.64,3.3,3.3,0,0,1,.15-.62,6.71,6.71,0,0,1,.27-.67,4.06,4.06,0,0,0,.42-1.77.19.19,0,0,0-.07-.16.21.21,0,0,0-.17-.07.11.11,0,0,0-.07,0l-.06.06L157.3,71.9a3.06,3.06,0,0,1-.49.4,3.1,3.1,0,0,1-.57.3,3.07,3.07,0,0,1-1.25.25h-2.1V77.5h2.33a6.43,6.43,0,0,1,2.51.5,5.77,5.77,0,0,0,2.15.43Z" transform="translate(6.68 1.18)"/><path class="cls-2" d="M125.88,61.86v26L104.94,98.33,84,87.88v-26L104.94,51.4Zm-38.65,24,16.1,8V73.46l-16.1-8ZM104.94,55,89.21,62.83l15.73,7.83,15.73-7.83ZM122.66,85.9V65.42l-16.11,8V94Z" transform="translate(6.68 1.18)"/><path class="cls-4" d="M157,91.5,140.44,75a17.75,17.75,0,0,0,.35-19.84l-1.7,1.09a15.71,15.71,0,0,1,2.53,8.58,15.87,15.87,0,1,1-8-13.72l1-1.75a17.86,17.86,0,1,0,4,27.8l16.4,16.31a1.4,1.4,0,0,0,2.37-1A1.33,1.33,0,0,0,157,91.5Z" transform="translate(6.68 1.18)"/><polygon class="cls-5" points="132.5 71.22 124.45 62.43 125.94 61.07 132.33 68.04 148.5 45.99 150.13 47.18 132.5 71.22"/><path class="cls-2" d="M125.66,28l.91.9-.91.91-.35-.35.32-.31H124.5V25.25h3.93v2h-.49V25.74h-3v2.94h.64l-.32-.32Zm4.24,1.15a1.38,1.38,0,0,1-.11.57,1.36,1.36,0,0,1-.32.46,1.4,1.4,0,0,1-.47.32,1.53,1.53,0,0,1-1.14,0,1.4,1.4,0,0,1-.47-.32,1.52,1.52,0,0,1-.32-.46,1.47,1.47,0,0,1,2.4-1.61,1.4,1.4,0,0,1,.32.47A1.38,1.38,0,0,1,129.9,29.17Zm-2.45,0a.84.84,0,0,0,.08.38,1,1,0,0,0,.52.52,1,1,0,0,0,.38.08,1,1,0,0,0,.38-.08,1,1,0,0,0,.32-.21,1,1,0,0,0,.21-.31,1,1,0,0,0,.07-.38,1,1,0,0,0-.07-.38.85.85,0,0,0-.21-.31,1.21,1.21,0,0,0-.32-.22,1,1,0,0,0-.38-.07,1,1,0,0,0-.38.07,1.16,1.16,0,0,0-.31.22.85.85,0,0,0-.21.31A.81.81,0,0,0,127.45,29.17Zm4.91,0v3.91h-3.93v-2h.49v1.47h3V29.66h-.63l.31.31-.34.35-.91-.91.91-.9.34.34-.31.32Z" transform="translate(6.68 1.18)"/><path class="cls-2" d="M88.47,107.62H83.16v-5.3h5.31Zm-3-3v-1.51H83.92v1.51Zm0,.76H83.92v1.51h1.52Zm.76-.76h1.51v-1.51H86.2Zm0,.76v1.51h1.51v-1.51Zm7.63-.75-1.73-1.73.53-.53L95.27,105l-2.64,2.63-.53-.53,1.71-1.71H89.23v-.76Z" transform="translate(6.68 1.18)"/><ellipse class="cls-6" cx="106.21" cy="45.32" rx="1.57" ry="1.56"/><ellipse class="cls-6" cx="165.81" cy="48.97" rx="1.57" ry="1.56"/><g class="cls-7"><path class="cls-8" d="M136.68,103.23h-.88v-.88a.18.18,0,0,0-.17-.17h-.35a.18.18,0,0,0-.18.17v.88h-.88a.17.17,0,0,0-.17.17v.35a.17.17,0,0,0,.17.17h.88v.88a.18.18,0,0,0,.18.17h.35a.18.18,0,0,0,.17-.17v-.88h.88a.17.17,0,0,0,.17-.17v-.35A.17.17,0,0,0,136.68,103.23Z" transform="translate(6.68 1.18)"/></g><g class="cls-7"><path class="cls-8" d="M77,47.45h-.88v-.88a.18.18,0,0,0-.17-.17h-.35a.18.18,0,0,0-.18.17v.88h-.87a.17.17,0,0,0-.18.17V48a.18.18,0,0,0,.18.18h.87V49a.18.18,0,0,0,.18.17h.35a.18.18,0,0,0,.17-.17v-.87H77a.17.17,0,0,0,.17-.18v-.35A.16.16,0,0,0,77,47.45Z" transform="translate(6.68 1.18)"/></g><ellipse class="cls-6" cx="165.81" cy="112.7" rx="1.57" ry="1.56"/><g class="cls-7"><path class="cls-8" d="M154.22,34h-.88v-.88a.17.17,0,0,0-.17-.17h-.35a.18.18,0,0,0-.18.17V34h-.87a.17.17,0,0,0-.18.17v.35a.17.17,0,0,0,.18.17h.87v.88a.18.18,0,0,0,.18.17h.35a.17.17,0,0,0,.17-.17v-.88h.88a.17.17,0,0,0,.18-.17v-.35A.17.17,0,0,0,154.22,34Z" transform="translate(6.68 1.18)"/></g><g id="Layer_1-2-2-2" data-name="Layer 1-2-2-2"><rect class="cls-9" width="254.7" height="141.18"/></g></svg>