<svg xmlns="http://www.w3.org/2000/svg" viewBox="0 0 261.72 144.14"><defs><style>.cls-1{fill:none;}.cls-2{opacity:0.5;}.cls-3{fill:#cbccce;}.cls-4{opacity:0.15;}.cls-5{fill:#231f20;}.cls-6{fill:#d2d3d4;}.cls-7{fill:#3b4550;}.cls-8{fill:#4e585a;}.cls-9{fill:#6ebe4c;}</style></defs><title>revenue-growth2</title><g id="Layer_1" data-name="Layer 1"><g id="Layer_1-2-2-2" data-name="Layer 1-2-2-2"><rect class="cls-1" x="6.42" y="2.14" width="255.3" height="142"/></g></g><g id="Layer_3" data-name="Layer 3"><g id="Layer_2" data-name="Layer 2"><g id="Layer_1-2" data-name="Layer 1-2"><g id="Layer_2-2" data-name="Layer 2-2"><g id="Layer_1-2-2" data-name="Layer 1-2-2"><g id="Layer_1-2-2-2-2" data-name="Layer 1-2-2-2"><rect class="cls-1" width="259.72" height="143.1"/><g class="cls-2"><path class="cls-3" d="M66.76,126.86H177a1,1,0,0,1,1,1V128a1,1,0,0,1-1,1H66.76a1,1,0,0,1-1-1v-.14A1,1,0,0,1,66.76,126.86Z" transform="translate(6.42 1.94)"/></g><g class="cls-2"><path class="cls-3" d="M183.47,126.86h15.85a1,1,0,0,1,1,1V128a1,1,0,0,1-1,1H183.47a1,1,0,0,1-1-1v-.14A1,1,0,0,1,183.47,126.86Z" transform="translate(6.42 1.94)"/></g><g class="cls-2"><path class="cls-3" d="M55.7,132.67H84.23a1,1,0,0,1,1,1v.14a1,1,0,0,1-1,1H55.7a1,1,0,0,1-1-1v-.14A1,1,0,0,1,55.7,132.67Z" transform="translate(6.42 1.94)"/></g><g class="cls-2"><path class="cls-3" d="M47.83,126.86h13.1a1,1,0,0,1,1,1V128a1,1,0,0,1-1,1H47.83a1,1,0,0,1-1-1v-.14A1,1,0,0,1,47.83,126.86Z" transform="translate(6.42 1.94)"/></g></g></g></g></g></g><g class="cls-4"><path class="cls-5" d="M116.5,36.66a3.21,3.21,0,1,1,3.35-3.21A3.27,3.27,0,0,1,116.5,36.66Zm0-5.15a1.94,1.94,0,1,0,2,1.94A2,2,0,0,0,116.5,31.51Z" transform="translate(6.42 1.94)"/></g><path class="cls-6" d="M112.38,10.19h.08c1.47-.18,3-.32,4.44-.41a.65.65,0,0,0,.6-.65.67.67,0,0,0-.68-.58c-1.5.09-3,.23-4.54.41a.64.64,0,0,0-.42.82.65.65,0,0,0,.51.42Z" transform="translate(6.42 1.94)"/><path class="cls-6" d="M103.57,11.79a.43.43,0,0,0,.16,0c1.44-.35,2.9-.64,4.35-.93a.63.63,0,0,0,.38-.84.71.71,0,0,0-.62-.41h0c-1.49.29-3,.65-4.43,1a.68.68,0,0,0-.82.48.64.64,0,0,0,.5.78.67.67,0,0,0,.48-.06Z" transform="translate(6.42 1.94)"/><path class="cls-6" d="M121.35,9.63h.12c1.45,0,2.9,0,4.33.12h0a.63.63,0,0,0,.5-.76h0a.62.62,0,0,0-.45-.46h0c-1.45-.09-2.95-.12-4.41-.12h-.13a.61.61,0,0,0-.48.75h0v0a.68.68,0,0,0,.48.45Z" transform="translate(6.42 1.94)"/><path class="cls-6" d="M95,14.46h.23c1.34-.52,2.79-1,4.19-1.45a.63.63,0,0,0,.21-.89.71.71,0,0,0-.61-.3h0c-1.43.45-2.87.95-4.28,1.48a.64.64,0,0,0-.28.86h0a.63.63,0,0,0,.53.33Z" transform="translate(6.42 1.94)"/><path class="cls-6" d="M72.42,28.31a.64.64,0,0,0,.44-.17c1.07-1,2.18-1.93,3.31-2.85a.63.63,0,0,0,.26-.88.69.69,0,0,0-.72-.32.72.72,0,0,0-.29.2h-.08c-1.15.93-2.28,1.9-3.36,2.9a.65.65,0,0,0,0,.88A.69.69,0,0,0,72.42,28.31Z" transform="translate(6.42 1.94)"/><path class="cls-6" d="M86.89,18.14a.53.53,0,0,0,.3-.09c1.26-.68,2.6-1.33,4-1.93a.63.63,0,0,0,.13-.9A.69.69,0,0,0,90.6,15h0c-1.34.65-2.68,1.28-4,2a.63.63,0,0,0-.17.9A.71.71,0,0,0,86.89,18.14Z" transform="translate(6.42 1.94)"/><path class="cls-6" d="M130.2,10.14c1.47.18,3,.4,4.4.65h.13a.66.66,0,0,0,.7-.57.63.63,0,0,0-.59-.67c-1.48-.26-3-.49-4.48-.65a.68.68,0,0,0-.81.49.63.63,0,0,0,.34.71A.65.65,0,0,0,130.2,10.14Z" transform="translate(6.42 1.94)"/><path class="cls-6" d="M79.33,22.78a.71.71,0,0,0,.38-.12c1.25-.84,2.51-1.65,3.67-2.41a.62.62,0,0,0,.43-.79.68.68,0,0,0-.85-.41,1,1,0,0,0-.24.15h0c-1.26.78-2.51,1.61-3.76,2.4a.63.63,0,0,0,0,.9h0a.67.67,0,0,0,.43.22Z" transform="translate(6.42 1.94)"/><path class="cls-6" d="M66.37,34.66a.68.68,0,0,0,.5-.24c.93-1.09,1.9-2.19,2.91-3.22a.64.64,0,0,0-.3-.87.72.72,0,0,0-.67,0q-1.52,1.61-3,3.3a.65.65,0,0,0,.09.89h0A.71.71,0,0,0,66.37,34.66Z" transform="translate(6.42 1.94)"/><path class="cls-6" d="M173.05,31.05a.68.68,0,0,0,.92-.17h0a.61.61,0,0,0,0-.66c-1-1.07-2.09-2.1-3.18-3.11a.66.66,0,0,0-.92,0,.6.6,0,0,0-.05.88h0V28A40.55,40.55,0,0,1,173.05,31.05Z" transform="translate(6.42 1.94)"/><path class="cls-6" d="M177,33.51a.69.69,0,0,0-.89-.34.63.63,0,0,0-.36.83h0a.76.76,0,0,0,.22.28h0c.39.46.76.91,1.13,1.38h1.63C178.12,34.94,177.56,34.22,177,33.51Z" transform="translate(6.42 1.94)"/><path class="cls-6" d="M166.56,25.2a.71.71,0,0,0,.42.14.68.68,0,0,0,.51-.23.63.63,0,0,0-.09-.88h0c-1.15-.91-2.35-1.81-3.58-2.67a.69.69,0,0,0-.89.31h0a.63.63,0,0,0,0,.65H163A40.78,40.78,0,0,1,166.56,25.2Z" transform="translate(6.42 1.94)"/><path class="cls-6" d="M147.47,14.32c1.35.52,2.76,1.09,4.1,1.7a.72.72,0,0,0,.29.06.66.66,0,0,0,.61-.7.63.63,0,0,0-.33-.5c-1.35-.64-2.77-1.2-4.17-1.72a.69.69,0,0,0-.93.13h0a.63.63,0,0,0,.15.9.84.84,0,0,0,.31.12Z" transform="translate(6.42 1.94)"/><path class="cls-6" d="M155.54,18c1.26.68,2.6,1.42,3.85,2.17a.66.66,0,0,0,.86-.31.6.6,0,0,0-.17-.73c-1.25-.78-2.6-1.53-3.89-2.23a.72.72,0,0,0-.89.24h0A.66.66,0,0,0,155.54,18Z" transform="translate(6.42 1.94)"/><path class="cls-6" d="M139,11.71c1.44.35,2.87.75,4.29,1.21h.2a.67.67,0,0,0,.61-.44.63.63,0,0,0-.43-.78c-1.42-.44-2.88-.85-4.35-1.2a.66.66,0,0,0-.79.48.64.64,0,0,0,.43.75Z" transform="translate(6.42 1.94)"/><path class="cls-7" d="M173.28,107.61a.66.66,0,0,0,0,1,.71.71,0,0,0,1,0l1.48-1.41a.65.65,0,0,0,0-1,.73.73,0,0,0-1,0l-1.48,1.42" transform="translate(6.42 1.94)"/><path class="cls-7" d="M180.75,102.08a.71.71,0,0,0-1.2-.48L178.07,103a.65.65,0,0,0,0,1,.73.73,0,0,0,1,0l1.48-1.42a.64.64,0,0,0,.21-.47" transform="translate(6.42 1.94)"/><path class="cls-7" d="M178.07,107.15l1.48,1.41a.72.72,0,0,0,1,0,.66.66,0,0,0,0-1h0l-1.48-1.42a.73.73,0,0,0-1,0,.67.67,0,0,0,0,1" transform="translate(6.42 1.94)"/><path class="cls-7" d="M176,103.49a.62.62,0,0,0-.21-.47l-1.48-1.42a.73.73,0,0,0-1,0,.66.66,0,0,0,0,1l1.48,1.42a.71.71,0,0,0,1,0,.68.68,0,0,0,.21-.48" transform="translate(6.42 1.94)"/><path class="cls-7" d="M63.16,69.84a.46.46,0,0,0,0,.65.49.49,0,0,0,.67,0l1-1a.45.45,0,0,0,0-.65.5.5,0,0,0-.68,0h0l-1,1" transform="translate(6.42 1.94)"/><path class="cls-7" d="M68.21,66.1a.47.47,0,0,0-.81-.32l-1,1a.44.44,0,0,0,0,.64.48.48,0,0,0,.67,0l1-1a.43.43,0,0,0,.14-.32" transform="translate(6.42 1.94)"/><path class="cls-7" d="M66.4,69.53l1,1a.48.48,0,0,0,.67,0,.44.44,0,0,0,0-.65h0l-1-1a.48.48,0,0,0-.67,0,.44.44,0,0,0,0,.65" transform="translate(6.42 1.94)"/><path class="cls-7" d="M65,67.06a.43.43,0,0,0-.14-.32l-1-1a.48.48,0,0,0-.67,0,.45.45,0,0,0,0,.64l1,1a.48.48,0,0,0,.67,0,.43.43,0,0,0,.14-.32" transform="translate(6.42 1.94)"/><path class="cls-8" d="M86.25,100.54a.79.79,0,0,0-.8.77v7.3a.78.78,0,0,0,.8.76H97a.78.78,0,0,0,.8-.76v-7.3a.79.79,0,0,0-.8-.77H86.25" transform="translate(6.42 1.94)"/><path class="cls-8" d="M101.86,91.05a.78.78,0,0,0-.8.77v16.79a.78.78,0,0,0,.8.76h10.76a.78.78,0,0,0,.8-.76V91.82a.79.79,0,0,0-.8-.77H101.86" transform="translate(6.42 1.94)"/><path class="cls-8" d="M117.46,88.34a.78.78,0,0,0-.8.77v19.5a.78.78,0,0,0,.8.76h10.76a.78.78,0,0,0,.8-.76V89.11a.78.78,0,0,0-.8-.77H117.46" transform="translate(6.42 1.94)"/><path class="cls-8" d="M133.07,79a.78.78,0,0,0-.8.77v28.87a.78.78,0,0,0,.8.76h10.76a.78.78,0,0,0,.8-.76V79.74a.78.78,0,0,0-.8-.77H133.07m.79,1.53H143v27.34h-9.17Z" transform="translate(6.42 1.94)"/><path class="cls-8" d="M147.87,73.39v35.22a.78.78,0,0,0,.8.76h10.76a.78.78,0,0,0,.8-.76V73.39a.79.79,0,0,0-.8-.77H148.67a.79.79,0,0,0-.8.77m1.6.77h9.16v33.68h-9.16Z" transform="translate(6.42 1.94)"/><path class="cls-9" d="M147.87,56.26l2.49,2.49-11.73,11a.77.77,0,0,1-1,0l-6.65-6.43a1.47,1.47,0,0,0-2,0l0,0-16,16.19a.76.76,0,0,1-1.05,0h0l-8-7.7a.75.75,0,0,0-1,0l-18,16.63a.7.7,0,0,0,0,1h0l1.23,1.23a.76.76,0,0,0,1.05,0l15.65-14.49a.76.76,0,0,1,1,0l8.08,7.8a.76.76,0,0,0,1,0h0l16.47-16.69a.77.77,0,0,1,1,0h0l7.05,6.82a.76.76,0,0,0,1,0l14-13.14.51.52,2.29,2.29L159,53.52Z" transform="translate(6.42 1.94)"/></g></svg>