<?xml version="1.0" encoding="utf-8"?>
<!-- Generator: Adobe Illustrator 24.1.2, SVG Export Plug-In . SVG Version: 6.00 Build 0)  -->
<svg version="1.1" id="Layer_1" xmlns="http://www.w3.org/2000/svg" xmlns:xlink="http://www.w3.org/1999/xlink" x="0px" y="0px"
	 viewBox="0 0 255.6 142.2" style="enable-background:new 0 0 255.6 142.2;" xml:space="preserve">
<style type="text/css">
	.st0{opacity:0.5;}
	.st1{fill:#C9CACB;}
	.st2{fill:#D2D3D2;}
	.st3{fill:none;}
	.st4{opacity:0.15;fill:#211E1F;enable-background:new    ;}
	.st5{fill:#6EBE4C;}
	.st6{opacity:0.15;}
	.st7{fill:#211E1F;}
	.st8{fill:#505A59;}
	.st9{fill:#FFFFFF;}
</style>
<g>
	<g class="st0">
		<path class="st1" d="M71.9,126.1h110.3c0.6,0,1,0.5,1,1v0.1c0,0.6-0.5,1-1,1H71.9c-0.6,0-1-0.5-1-1v-0.1
			C70.9,126.6,71.4,126.1,71.9,126.1z"/>
	</g>
	<g class="st0">
		<path class="st1" d="M188.7,126.1h15.9c0.6,0,1,0.5,1,1v0.1c0,0.6-0.5,1-1,1h-15.9c-0.6,0-1-0.5-1-1v-0.1
			C187.6,126.6,188.1,126.1,188.7,126.1z"/>
	</g>
	<g class="st0">
		<path class="st1" d="M60.9,132h28.5c0.6,0,1,0.5,1,1v0.1c0,0.6-0.5,1-1,1H60.9c-0.6,0-1-0.5-1-1V133C59.8,132.4,60.3,132,60.9,132
			z"/>
	</g>
	<g class="st0">
		<path class="st1" d="M53,126.1h13.1c0.6,0,1,0.5,1,1v0.1c0,0.6-0.5,1-1,1H53c-0.6,0-1-0.5-1-1v-0.1
			C51.9,126.6,52.4,126.1,53,126.1z"/>
	</g>
	<path class="st2" d="M120.9,7.4L120.9,7.4c1.3-0.2,2.5-0.3,3.7-0.3c0.3,0,0.5-0.3,0.5-0.5c0-0.3-0.3-0.5-0.5-0.5
		c-1.2,0.1-2.5,0.2-3.7,0.3c-0.3,0.1-0.4,0.4-0.3,0.7C120.6,7.2,120.8,7.3,120.9,7.4L120.9,7.4z"/>
	<path class="st2" d="M113.8,8.7h0.1c1.2-0.3,2.3-0.5,3.5-0.8c0.3-0.1,0.4-0.4,0.3-0.7c0,0,0,0,0,0c-0.1-0.2-0.3-0.3-0.5-0.3l0,0
		c-1.2,0.2-2.4,0.5-3.6,0.8c-0.3-0.1-0.6,0.1-0.6,0.4c-0.1,0.3,0.1,0.6,0.4,0.6C113.5,8.8,113.7,8.8,113.8,8.7L113.8,8.7z"/>
	<path class="st2" d="M128.2,6.9h0.1c1.2,0,2.3,0,3.5,0.1l0,0c0.3-0.1,0.5-0.3,0.4-0.6c0,0,0,0,0,0l0,0c0-0.2-0.2-0.3-0.4-0.4l0,0
		c-1.2-0.1-2.4-0.1-3.6-0.1h-0.1c-0.3,0.1-0.5,0.4-0.4,0.6l0,0C127.8,6.7,128,6.8,128.2,6.9L128.2,6.9z"/>
	<path class="st2" d="M106.8,11c0.1,0,0.1,0,0.2,0c1.1-0.4,2.3-0.9,3.4-1.2c0.3-0.2,0.3-0.5,0.2-0.8c-0.1-0.2-0.3-0.3-0.5-0.3l0,0
		c-1.2,0.4-2.3,0.8-3.5,1.3c-0.3,0.1-0.4,0.5-0.2,0.7l0,0C106.5,10.9,106.6,11,106.8,11L106.8,11z"/>
	<path class="st2" d="M88.5,22.7c0.1,0,0.3-0.1,0.4-0.1c0.9-0.8,1.8-1.6,2.7-2.4c0.3-0.1,0.4-0.5,0.2-0.7c0,0,0,0,0,0
		c-0.1-0.2-0.4-0.3-0.6-0.3c-0.1,0-0.2,0.1-0.2,0.2h-0.1c-0.9,0.8-1.9,1.6-2.7,2.5c-0.2,0.2-0.2,0.5,0,0.7
		C88.3,22.6,88.4,22.7,88.5,22.7z"/>
	<path class="st2" d="M100.3,14.1c0.1,0,0.2,0,0.2-0.1c1-0.6,2.1-1.1,3.2-1.6c0.2-0.2,0.3-0.5,0.1-0.7c0,0,0,0,0,0
		c-0.1-0.2-0.3-0.3-0.6-0.2l0,0c-1.1,0.5-2.2,1.1-3.3,1.7c-0.2,0.2-0.3,0.5-0.1,0.8C100,14,100.1,14.1,100.3,14.1z"/>
	<path class="st2" d="M135.4,7.3c1.2,0.2,2.4,0.3,3.6,0.5h0.1c0.3,0,0.5-0.2,0.6-0.5c0-0.3-0.2-0.5-0.5-0.6
		c-1.2-0.2-2.4-0.4-3.6-0.5c-0.3-0.1-0.6,0.1-0.7,0.4c-0.1,0.2,0,0.5,0.3,0.6C135.2,7.3,135.3,7.3,135.4,7.3z"/>
	<path class="st2" d="M94.1,18c0.1,0,0.2,0,0.3-0.1c1-0.7,2-1.4,3-2c0.3-0.1,0.4-0.4,0.3-0.7c0,0,0,0,0,0c-0.1-0.3-0.4-0.4-0.7-0.3
		c-0.1,0-0.1,0.1-0.2,0.1l0,0c-1,0.7-2,1.4-3.1,2c-0.2,0.2-0.2,0.5,0,0.8l0,0C93.9,17.9,94,18,94.1,18L94.1,18z"/>
	<path class="st2" d="M83.6,28.1c0.2,0,0.3-0.1,0.4-0.2c0.8-0.9,1.5-1.9,2.4-2.7c0.1-0.3,0-0.6-0.2-0.7c0,0,0,0,0,0
		c-0.2-0.1-0.4-0.1-0.5,0c-0.8,0.9-1.6,1.8-2.4,2.8c-0.2,0.2-0.1,0.6,0.1,0.8l0,0C83.4,28,83.5,28.1,83.6,28.1z"/>
	<path class="st2" d="M170.1,25c0.2,0.2,0.6,0.1,0.7-0.1c0,0,0,0,0,0l0,0c0.1-0.2,0.1-0.4,0-0.6c-0.8-0.9-1.7-1.8-2.6-2.6
		c-0.2-0.2-0.5-0.2-0.7,0c0,0,0,0,0,0c-0.2,0.2-0.2,0.5,0,0.7l0,0v0.1C168.5,23.3,169.3,24.1,170.1,25z"/>
	<path class="st2" d="M173.3,27.1c-0.1-0.3-0.4-0.4-0.7-0.3c-0.3,0.1-0.4,0.4-0.3,0.7l0,0c0,0.1,0.1,0.2,0.2,0.2l0,0
		c0.3,0.4,0.6,0.8,0.9,1.2h1.3C174.2,28.3,173.8,27.7,173.3,27.1z"/>
	<path class="st2" d="M164.9,20.1c0.1,0.1,0.2,0.1,0.3,0.1c0.2,0,0.3-0.1,0.4-0.2c0.2-0.2,0.2-0.6-0.1-0.7l0,0
		c-0.9-0.8-1.9-1.5-2.9-2.3c-0.3-0.1-0.6,0-0.7,0.3l0,0c-0.1,0.2-0.1,0.4,0,0.5h0.1C163,18.5,163.9,19.3,164.9,20.1z"/>
	<path class="st2" d="M149.4,10.9c1.1,0.4,2.2,0.9,3.3,1.4c0.1,0,0.2,0,0.2,0c0.3,0,0.5-0.3,0.5-0.6c0-0.2-0.1-0.3-0.3-0.4
		c-1.1-0.5-2.2-1-3.4-1.5c-0.2-0.2-0.6-0.1-0.8,0.1l0,0c-0.2,0.2-0.1,0.6,0.1,0.8C149.2,10.8,149.3,10.8,149.4,10.9L149.4,10.9z"/>
	<path class="st2" d="M155.9,13.9c1,0.6,2.1,1.2,3.1,1.8c0.3,0.1,0.6,0,0.7-0.3c0,0,0,0,0,0c0.1-0.2,0-0.5-0.1-0.6
		c-1-0.7-2.1-1.3-3.2-1.9c-0.3-0.1-0.6,0-0.7,0.2l0,0C155.6,13.5,155.7,13.8,155.9,13.9z"/>
	<path class="st2" d="M142.5,8.7c1.2,0.3,2.3,0.6,3.5,1h0.2c0.3,0,0.5-0.3,0.5-0.6c0-0.2-0.1-0.4-0.3-0.4c-1.2-0.4-2.3-0.7-3.5-1
		c-0.3-0.1-0.6,0.1-0.6,0.4C142,8.3,142.2,8.6,142.5,8.7L142.5,8.7z"/>
	<g id="b9d9adb6-2a93-4efc-a44b-32f20deb4ae8">
		<rect x="-0.3" y="-0.3" class="st3" width="255.9" height="142.4"/>
	</g>
	<path class="st1" d="M184.4,99.8c0.4,0,0.7,0,1.1,0.1c0.3,0.1,0.6,0.2,0.9,0.4c0.3,0.2,0.6,0.4,0.8,0.6c0.2,0.2,0.5,0.5,0.6,0.8
		c0.2,0.3,0.3,0.6,0.4,1c0.2,0.7,0.2,1.4,0,2.1c-0.1,0.3-0.2,0.7-0.4,1c-0.2,0.3-0.4,0.6-0.6,0.8c-0.2,0.2-0.5,0.5-0.8,0.6
		c-0.3,0.2-0.6,0.3-0.9,0.4c-0.3,0.1-0.7,0.1-1.1,0.1c-0.3,0-0.7-0.1-1-0.1c-0.3-0.1-0.7-0.2-1-0.4c-0.3-0.2-0.6-0.4-0.8-0.6
		c-0.2-0.2-0.5-0.5-0.6-0.8c-0.2-0.3-0.3-0.6-0.4-1c-0.2-0.7-0.2-1.4,0-2.1c0.1-0.3,0.2-0.7,0.4-1c0.2-0.3,0.4-0.6,0.6-0.8
		c0.2-0.2,0.5-0.5,0.8-0.6c0.3-0.2,0.6-0.3,1-0.4C183.7,99.9,184,99.8,184.4,99.8z M187.8,104.3c0-0.2,0-0.3,0-0.5
		c0-0.3,0-0.6-0.1-0.9c-0.2-0.6-0.5-1.1-0.9-1.5c-0.2-0.2-0.4-0.4-0.7-0.5c-0.3-0.2-0.5-0.3-0.8-0.3c-0.6-0.2-1.3-0.2-1.9,0
		c-0.3,0.1-0.6,0.2-0.8,0.3c-0.3,0.2-0.5,0.3-0.7,0.5c-0.4,0.4-0.7,1-0.9,1.5c-0.1,0.3-0.1,0.6-0.1,0.9c0,0.2,0,0.3,0,0.5H187.8z
		 M181,104.8c0,0.1,0,0.2,0.1,0.3l0.1,0.2h3.8l-0.1-0.5H181z M183.1,105.8h-1.5c0.2,0.2,0.3,0.4,0.5,0.6c0.2,0.2,0.4,0.3,0.7,0.5
		L183.1,105.8z M185.7,101.7l0.4,0.4l-1.7,1.7l-1.7-1.6l0.3-0.4l1.1,1v-2h0.5v2L185.7,101.7z M184.4,107.3c0.3,0,0.7,0,1-0.1
		l-0.1-0.4h-2l-0.1,0.3c0.2,0.1,0.4,0.1,0.6,0.2C184,107.3,184.2,107.3,184.4,107.3L184.4,107.3z M183.6,105.8l-0.2,0.5h1.8
		l-0.1-0.5H183.6z M187.6,105.3c0-0.1,0.1-0.2,0.1-0.2c0-0.1,0.1-0.2,0.1-0.3h-2.3l0.1,0.5H187.6z M185.9,107
		c0.3-0.1,0.5-0.3,0.8-0.5c0.2-0.2,0.4-0.4,0.6-0.7h-1.6L185.9,107z"/>
	<path class="st1" d="M80.3,90.5h3.3v5.8h-5.8V93h1.2v-0.8h-1.2v-1.6h1.7v1.2h0.8V90.5z M83.2,95.9v-5H82v1.2h-1.2v1.2h-1.2v1.2
		h-1.2v1.2L83.2,95.9z M78.3,91.8h0.8v-0.8h-0.8V91.8z M78.3,93.4v0.8h0.8v-0.8H78.3z M79.6,92.2V93h0.8v-0.8L79.6,92.2z M80.7,90.9
		v0.8h0.8v-0.8H80.7z"/>
	<path class="st4" d="M161.5,47.7c-1,0-1.8-0.8-1.8-1.8s0.8-1.8,1.8-1.8s1.8,0.8,1.8,1.8S162.5,47.7,161.5,47.7z M161.5,44.9
		c-0.6,0-1,0.5-1,1s0.5,1,1,1c0.6,0,1-0.5,1-1S162.1,44.9,161.5,44.9z"/>
	<path class="st1" d="M171.9,65.4c-2,0-3.5-1.6-3.5-3.5c0-2,1.6-3.5,3.5-3.5c2,0,3.5,1.6,3.5,3.5C175.4,63.8,173.9,65.4,171.9,65.4z
		 M171.9,59.3c-1.4,0-2.5,1.1-2.5,2.5s1.1,2.5,2.5,2.5s2.5-1.1,2.5-2.5S173.3,59.3,171.9,59.3z"/>
	<path class="st5" d="M157.7,38.4c-2,0-3.5-1.6-3.5-3.5c0-2,1.6-3.5,3.5-3.5c2,0,3.5,1.6,3.5,3.5C161.2,36.9,159.6,38.4,157.7,38.4z
		 M157.7,32.4c-1.4,0-2.5,1.1-2.5,2.5c0,1.4,1.1,2.5,2.5,2.5s2.5-1.1,2.5-2.5C160.2,33.5,159.1,32.4,157.7,32.4z"/>
	<path class="st5" d="M147.1,30.6c-2,0-3.5-1.6-3.5-3.5c0-2,1.6-3.5,3.5-3.5c2,0,3.5,1.6,3.5,3.5C150.7,29,149.1,30.6,147.1,30.6z
		 M147.1,24.5c-1.4,0-2.5,1.1-2.5,2.5c0,1.4,1.1,2.5,2.5,2.5s2.5-1.1,2.5-2.5C149.7,25.6,148.5,24.5,147.1,24.5z"/>
	<path class="st5" d="M127.4,25c-2,0-3.5-1.6-3.5-3.5c0-2,1.6-3.5,3.5-3.5c2,0,3.5,1.6,3.5,3.5C131,23.4,129.4,25,127.4,25z
		 M127.4,18.9c-1.4,0-2.5,1.1-2.5,2.5c0,1.4,1.1,2.5,2.5,2.5c1.4,0,2.5-1.1,2.5-2.5C130,20.1,128.8,18.9,127.4,18.9z"/>
	<path class="st5" d="M108.5,30.2c-2,0-3.5-1.6-3.5-3.5c0-2,1.6-3.5,3.5-3.5s3.5,1.6,3.5,3.5C112,28.6,110.5,30.2,108.5,30.2z
		 M108.5,24.2c-1.4,0-2.5,1.1-2.5,2.5s1.1,2.5,2.5,2.5s2.5-1.1,2.5-2.5S109.9,24.2,108.5,24.2z"/>
	<path class="st5" d="M98.1,38c-2,0-3.5-1.6-3.5-3.5c0-2,1.6-3.5,3.5-3.5s3.5,1.6,3.5,3.5C101.6,36.4,100,38,98.1,38z M98.1,31.9
		c-1.4,0-2.5,1.1-2.5,2.5s1.1,2.5,2.5,2.5s2.5-1.1,2.5-2.5S99.5,31.9,98.1,31.9z"/>
	<path class="st1" d="M172.2,78.2c-2,0-3.5-1.6-3.5-3.5c0-2,1.6-3.5,3.5-3.5c2,0,3.5,1.6,3.5,3.5C175.8,76.6,174.2,78.2,172.2,78.2z
		 M172.2,72.1c-1.4,0-2.5,1.1-2.5,2.5c0,1.4,1.1,2.5,2.5,2.5c1.4,0,2.5-1.1,2.5-2.5C174.7,73.3,173.6,72.1,172.2,72.1z"/>
	<path class="st1" d="M83.8,77.4c-2,0-3.5-1.6-3.5-3.5c0-2,1.6-3.5,3.5-3.5s3.5,1.6,3.5,3.5C87.3,75.8,85.7,77.4,83.8,77.4z
		 M83.8,71.4c-1.4,0-2.5,1.1-2.5,2.5s1.1,2.5,2.5,2.5s2.5-1.1,2.5-2.5S85.2,71.4,83.8,71.4z"/>
	<path class="st1" d="M83.8,64c-2,0-3.5-1.6-3.5-3.5c0-2,1.6-3.5,3.5-3.5s3.5,1.6,3.5,3.5C87.3,62.4,85.7,64,83.8,64z M83.8,58
		c-1.4,0-2.5,1.1-2.5,2.5c0,1.4,1.1,2.5,2.5,2.5s2.5-1.1,2.5-2.5C86.3,59.1,85.2,58,83.8,58z"/>
	<path class="st4" d="M165.7,116.7c-1.1,0-2-0.9-2-2c0-1.1,0.9-2,2-2s2,0.9,2,2C167.7,115.8,166.8,116.7,165.7,116.7z M165.7,113.6
		c-0.7,0-1.2,0.5-1.2,1.2c0,0.7,0.5,1.2,1.2,1.2s1.2-0.5,1.2-1.2C166.9,114.1,166.4,113.6,165.7,113.6z"/>
	<g class="st6">
		<path class="st7" d="M92.4,46.9h-0.8v-0.8c0-0.1-0.1-0.2-0.2-0.2h-0.3C91,45.9,91,46,91,46.1v0.8h-0.8c-0.1,0-0.2,0.1-0.2,0.2v0.3
			c0,0.1,0.1,0.2,0.2,0.2c0,0,0,0,0,0H91v0.8c0,0.1,0.1,0.2,0.2,0.2h0.3c0.1,0,0.2-0.1,0.2-0.2v-0.8h0.8c0.1,0,0.2-0.1,0.2-0.1
			c0,0,0,0,0,0V47C92.6,46.9,92.5,46.9,92.4,46.9z"/>
	</g>
	<g class="st6">
		<path class="st7" d="M184.5,91.3h-0.9v-0.9c0-0.1-0.1-0.2-0.2-0.2h-0.4c-0.1,0-0.2,0.1-0.2,0.2v0.9H182c-0.1,0-0.2,0.1-0.2,0.2
			v0.3c0,0.1,0.1,0.2,0.2,0.2h0.9v0.9c0,0.1,0.1,0.2,0.2,0.2h0.4c0.1,0,0.2-0.1,0.2-0.2V92h0.9c0.1,0,0.2-0.1,0.2-0.2v-0.3
			C184.7,91.4,184.6,91.3,184.5,91.3C184.5,91.3,184.5,91.3,184.5,91.3z"/>
	</g>
	<g class="st6">
		<path class="st7" d="M94.1,110.7h-0.9v-0.9c0-0.1-0.1-0.2-0.2-0.2h-0.4c-0.1,0-0.2,0.1-0.2,0.2c0,0,0,0,0,0v0.9h-0.9
			c-0.1,0-0.2,0.1-0.2,0.2c0,0,0,0,0,0v0.3c0,0.1,0.1,0.2,0.2,0.2c0,0,0,0,0,0h0.9v0.9c0,0.1,0.1,0.2,0.2,0.2c0,0,0,0,0,0H93
			c0.1,0,0.2-0.1,0.2-0.2v-0.9h0.9c0.1,0,0.2-0.1,0.2-0.2l0,0v-0.3C94.3,110.8,94.2,110.7,94.1,110.7z"/>
	</g>
	
		<rect x="94.5" y="54.1" transform="matrix(8.636796e-02 -0.9963 0.9963 8.636796e-02 25.0424 151.3746)" class="st1" width="1" height="15.8"/>
	
		<rect x="94.2" y="67.2" transform="matrix(8.633677e-02 -0.9963 0.9963 8.633677e-02 11.7236 162.9309)" class="st1" width="1" height="15.8"/>
	
		<rect x="153.1" y="62.7" transform="matrix(0.9963 -8.595521e-02 8.595521e-02 0.9963 -4.8363 14.0689)" class="st1" width="15.8" height="1"/>
	
		<rect x="153.4" y="75.7" transform="matrix(0.9963 -8.595521e-02 8.595521e-02 0.9963 -5.9558 14.1482)" class="st1" width="15.8" height="1"/>
	<path class="st5" d="M105.5,49.5c-0.2,0-0.4-0.1-0.5-0.3l-5.5-11.5c-0.1-0.3,0-0.6,0.2-0.7c0.3-0.1,0.6,0,0.7,0.2l5.5,11.5
		c0.1,0.3,0,0.6-0.2,0.7C105.6,49.5,105.5,49.5,105.5,49.5z"/>
	<path class="st5" d="M150.4,49.5c-0.1,0-0.1,0-0.2-0.1c-0.3-0.1-0.4-0.4-0.2-0.7l5.5-11.5c0.1-0.3,0.4-0.4,0.7-0.2
		c0.3,0.1,0.4,0.4,0.2,0.7l-5.5,11.5C150.8,49.4,150.6,49.5,150.4,49.5z"/>
	<path class="st5" d="M115.6,49.5c-0.2,0-0.4-0.1-0.5-0.4l-6-18.8c-0.1-0.3,0.1-0.6,0.3-0.6c0.3-0.1,0.6,0.1,0.6,0.3l6,18.8
		c0.1,0.3-0.1,0.6-0.3,0.6C115.7,49.5,115.6,49.5,115.6,49.5z"/>
	<path class="st5" d="M140.2,49.5c-0.1,0-0.1,0-0.2,0c-0.3-0.1-0.4-0.4-0.3-0.6l6-18.8c0.1-0.3,0.4-0.4,0.6-0.3
		c0.3,0.1,0.4,0.4,0.3,0.6l-6,18.8C140.6,49.4,140.4,49.5,140.2,49.5z"/>
	<path class="st5" d="M127.4,49c-0.3,0-0.5-0.2-0.5-0.5V25c0-0.3,0.2-0.5,0.5-0.5c0.3,0,0.5,0.2,0.5,0.5v23.5
		C128,48.7,127.7,49,127.4,49z"/>
	<g>
		<circle class="st2" cx="143.9" cy="58.7" r="0.6"/>
		<circle class="st2" cx="142.1" cy="58.7" r="0.6"/>
		<circle class="st2" cx="140.3" cy="58.7" r="0.6"/>
		<path class="st8" d="M126.8,74.8h14v0.9h-15.1v-12h1.1L126.8,74.8z M140.8,69.1v4.9h-12.9v-6.1l2.7-1.1l3.7,1.5l2.8-2.2
			L140.8,69.1z M130.6,67.8l-1.6,0.6v2.9h3.6l4.5-1.8l2.6,2.1v-2.2l-2.7-2.1l-2.6,2.1L130.6,67.8z M129,73.1h10.8v-0.3l-2.8-2.2
			l-4.1,1.6H129V73.1z"/>
		<path class="st8" d="M136.6,82.2v-1.4h1.3v1.4H136.6z M138.4,82.2v-2.8h1.3v2.8H138.4z M140.2,82.2V78h1.3v4.2H140.2z M140.7,78.5
			v3.3h0.5v-3.3H140.7z M142,76.6h1.3v5.6H142V76.6z M142.9,81.8v-4.7h-0.4v4.7H142.9z"/>
		<path class="st8" d="M120.8,56.3h25.8v28.9h-25.8V56.3z M145.5,57.3h-23.6v2.8h23.6V57.3z M121.9,83.9h23.6V60.8h-23.6V83.9z"/>
	</g>
	<g>
		<circle class="st2" cx="125.1" cy="90.7" r="0.4"/>
		<circle class="st2" cx="123.9" cy="90.7" r="0.4"/>
		<circle class="st2" cx="122.7" cy="90.7" r="0.4"/>
		<path class="st8" d="M113,100.1v-1.5h1.4v1.5H113z M114.8,100.1v-2.9h1.4v2.9H114.8z M116.7,100.1v-4.4h1.4v4.4H116.7z
			 M117.2,96.2v3.4h0.5v-3.4H117.2z M118.6,94.3h1.4v5.8h-1.4V94.3z M119.5,99.6v-4.9h-0.5v4.9H119.5z"/>
		<path class="st8" d="M109.5,89.1h17.4v19.5h-17.4V89.1z M126.2,89.8h-16v1.9h16V89.8z M110.2,107.8h16V92.1h-16V107.8z"/>
	</g>
	<path class="st8" d="M150.1,49.2h-44.6c-2.3,0-4.2,1.9-4.2,4.2v9v43.6v8.6c0,2.3,1.9,4.2,4.2,4.2h44.6c2.3,0,4.2-1.9,4.2-4.2v-9V62
		v-8.6C154.4,51.1,152.5,49.2,150.1,49.2z M149.9,102.7v12.1h-4c-0.7-1-1.4-1.9-2.1-2.9H112c-0.6,1-1.3,2-2,2.9h-4.2v-12.4v-37V53.4
		h44.2v12.4V102.7z"/>
	<path class="st9" d="M128.3,116.7h-0.9c-0.5,0-0.9-0.4-0.9-0.9v-0.9c0-0.5,0.4-0.9,0.9-0.9h0.9c0.5,0,0.9,0.4,0.9,0.9v0.9
		C129.2,116.3,128.8,116.7,128.3,116.7z"/>
	<g>
		<path class="st8" d="M124.6,101.4c0,0,0.1,0,0.1,0s0.1,0,0.1,0.1s0.1,0.1,0.1,0.1s0,0.1,0,0.1v3.1c0,0,0,0.1,0,0.1s0,0.1-0.1,0.1
			s-0.1,0.1-0.1,0.1s-0.1,0-0.1,0h-0.7v0.2c0,0.2,0,0.4-0.1,0.6c-0.1,0.2-0.2,0.4-0.3,0.5s-0.3,0.3-0.5,0.3
			c-0.2,0.1-0.4,0.1-0.6,0.1c-0.2,0-0.4,0-0.6-0.1c-0.2-0.1-0.4-0.2-0.5-0.3c-0.1-0.1-0.3-0.3-0.3-0.5c-0.1-0.2-0.1-0.4-0.1-0.6
			v-0.2h-1c0,0-0.1,0-0.1,0c0,0-0.1,0-0.1-0.1s-0.1-0.1-0.1-0.1s0-0.1,0-0.1v-3.1c0,0,0-0.1,0-0.1s0-0.1,0.1-0.1s0.1-0.1,0.1-0.1
			c0,0,0.1,0,0.1,0H124.6z M124.6,101.8h-4.9v3.1h1.1c0.1-0.1,0.1-0.2,0.3-0.3c0.1-0.1,0.2-0.1,0.4-0.1v-0.1c-0.1,0-0.2-0.1-0.3-0.2
			c-0.1-0.1-0.2-0.2-0.2-0.3c-0.1-0.1-0.1-0.2-0.1-0.3c0-0.1,0-0.2,0-0.3c0-0.2,0-0.3,0.1-0.5c0.1-0.1,0.2-0.3,0.3-0.4
			s0.2-0.2,0.4-0.3c0.1-0.1,0.3-0.1,0.5-0.1c0.2,0,0.3,0,0.5,0.1c0.1,0.1,0.3,0.2,0.4,0.3s0.2,0.2,0.3,0.4c0.1,0.1,0.1,0.3,0.1,0.5
			c0,0.2,0,0.3-0.1,0.5c-0.1,0.1-0.2,0.3-0.3,0.4c0.1,0,0.2,0.1,0.4,0.1c0.1,0,0.2,0.1,0.4,0.1c0.1,0,0.1,0,0.1,0.1s0.1,0.1,0.1,0.1
			c0,0,0.1,0.1,0.1,0.1c0,0,0,0.1,0,0.2v0.1h0.7V101.8z M122.5,104.1c0.1-0.1,0.2-0.2,0.3-0.3c0.1-0.1,0.1-0.3,0.1-0.4
			c0-0.1,0-0.2-0.1-0.3c0-0.1-0.1-0.2-0.2-0.3s-0.2-0.1-0.3-0.2c-0.1,0-0.2-0.1-0.3-0.1s-0.2,0-0.3,0.1c-0.1,0-0.2,0.1-0.3,0.2
			c-0.1,0.1-0.1,0.2-0.2,0.3c0,0.1-0.1,0.2-0.1,0.3c0,0.1,0,0.3,0.1,0.4c0.1,0.1,0.1,0.2,0.3,0.3v-0.7c0-0.1,0-0.1,0-0.2
			c0-0.1,0.1-0.1,0.1-0.2s0.1-0.1,0.2-0.1c0.1,0,0.1,0,0.2,0c0.1,0,0.1,0,0.2,0c0.1,0,0.1,0.1,0.2,0.1c0,0,0.1,0.1,0.1,0.2
			c0,0.1,0,0.1,0,0.2V104.1z M123.5,104.8C123.5,104.8,123.5,104.8,123.5,104.8c0-0.1-0.1-0.1-0.1-0.1l-1-0.2c0,0,0,0.1,0,0.1
			c0,0,0,0.1,0,0.1s0,0.1-0.1,0.1c0,0-0.1,0-0.1,0c0,0-0.1,0-0.1-0.1c0,0-0.1-0.1-0.1-0.1v-1.3c0,0,0-0.1-0.1-0.1s-0.1-0.1-0.1-0.1
			c0,0-0.1,0-0.1,0.1s-0.1,0.1-0.1,0.1v1.9c0,0,0,0.1-0.1,0.1c0,0-0.1,0.1-0.1,0.1s-0.1,0-0.1-0.1c0,0-0.1-0.1-0.1-0.1v-0.4
			c0,0-0.1,0-0.1,0s-0.1,0-0.1,0.1s-0.1,0.1-0.1,0.1s0,0.1,0,0.1v0.2c0,0.2,0,0.3,0.1,0.5c0.1,0.1,0.2,0.3,0.3,0.4s0.2,0.2,0.4,0.3
			c0.1,0.1,0.3,0.1,0.5,0.1c0.2,0,0.3,0,0.5-0.1c0.1-0.1,0.3-0.2,0.4-0.3s0.2-0.2,0.3-0.4c0.1-0.1,0.1-0.3,0.1-0.5V104.8z"/>
	</g>
</g>
</svg>
